<svg width="316" height="72" viewBox="0 0 316 72" fill="none" xmlns="http://www.w3.org/2000/svg">
<path d="M44.9082 18.4314H0V61.9471H44.9082V18.4314Z" fill="#E50914"/>
<path d="M30.6221 57.1548H22.565V34.8467H14.6216V29.5049C17.0515 29.4773 19.0835 28.8545 20.7461 27.6782C22.4087 26.4881 23.3892 25.035 23.6876 23.3052H30.6079V57.1548H30.6221Z" fill="white"/>
<path d="M114.98 38.5434C111.266 38.5434 108.258 41.1377 108.258 45.8547C108.258 50.5128 111.383 53.1071 115.098 53.1071C118.577 53.1071 120.523 50.9255 121.171 48.7439L129.072 51.1613C127.775 56.2911 122.94 61.3619 115.098 61.3619C106.372 61.3619 99.3551 54.9349 99.3551 45.8547C99.3551 36.7155 106.195 30.2886 114.803 30.2886C122.881 30.2886 127.598 35.2415 128.895 40.4891L120.876 42.9066C120.228 40.666 118.459 38.5434 114.98 38.5434ZM131.523 52.3996C131.523 47.2109 135.356 44.2627 140.191 43.5552L147.089 42.4939C148.681 42.258 149.212 41.4915 149.212 40.4891C149.212 38.7792 147.738 37.3052 144.908 37.3052C141.783 37.3052 140.073 39.4278 139.896 41.6094L132.113 40.0174C132.467 35.8311 136.358 30.2886 144.967 30.2886C154.46 30.2886 157.939 35.5953 157.939 41.6094V55.9373C157.939 58.2368 158.233 60.1826 158.292 60.4774H150.214C150.155 60.2416 149.92 59.1802 149.92 57.1755C148.387 59.6519 145.556 61.3029 141.665 61.3029C135.238 61.3029 131.523 57.0576 131.523 52.3996ZM143.846 54.817C146.5 54.817 149.212 53.5198 149.212 48.9797V47.6826L143.67 48.567C141.783 48.8618 140.368 49.7462 140.368 51.8099C140.368 53.343 141.37 54.817 143.846 54.817ZM192.96 17.7886V55.2298C192.96 57.8831 193.137 59.8288 193.196 60.4774H184.588C184.529 60.1236 184.352 58.8265 184.352 57.6472C182.996 59.6519 180.048 61.126 176.51 61.126C168.255 61.126 162.005 54.7581 162.005 45.7368C162.005 37.0104 167.901 30.4655 176.215 30.4655C181.227 30.4655 183.408 32.3523 184.116 33.4726V17.7886H192.96ZM171.026 45.7958C171.026 50.6307 174.151 53.1071 177.63 53.1071C181.109 53.1071 184.234 50.6307 184.234 45.7958C184.234 40.9019 181.109 38.5434 177.63 38.5434C174.151 38.5434 171.026 40.9019 171.026 45.7958ZM206.638 42.317H218.372C218.254 40.0764 216.721 37.3641 212.476 37.3641C208.702 37.3641 206.815 40.1354 206.638 42.317ZM219.02 49.9231L226.509 52.0458C225.094 57.1166 220.435 61.3619 213.006 61.3619C204.928 61.3619 197.735 55.5835 197.735 45.7368C197.735 36.3028 204.751 30.2886 212.358 30.2886C221.438 30.2886 227.039 35.8901 227.039 45.3241C227.039 46.5623 226.921 47.9184 226.862 48.0953H206.461C206.638 51.3972 209.645 53.7557 213.124 53.7557C216.367 53.7557 218.195 52.2227 219.02 49.9231ZM240.577 60.4774H231.614V31.1731H240.164V34.5339C241.638 31.9396 245.412 30.2886 248.596 30.2886C252.782 30.2886 255.789 31.9985 257.263 34.8877C259.563 31.5858 262.393 30.2886 266.343 30.2886C271.886 30.2886 277.192 33.5316 277.192 41.4915V60.4774H268.525V43.4962C268.525 40.725 267.051 38.5434 263.867 38.5434C260.683 38.5434 258.973 40.9608 258.973 43.5552V60.4774H250.129V43.4962C250.129 40.725 248.655 38.5434 245.412 38.5434C242.287 38.5434 240.577 40.9608 240.577 43.6142V60.4774ZM294.274 71.7392H284.84L291.502 56.5269L279.179 31.1731H289.203L296.337 46.8571L302.823 31.1731H312.316L294.274 71.7392Z" fill="white"/>
<path d="M89.0214 61L85.8964 52.1764H69.1071L65.9821 61H55.8105L72.1709 17.5562H83.3841L99.5607 61H89.0214ZM77.6243 28.3406L72.2934 43.3529H82.8327L77.6243 28.3406Z" fill="white"/>
</svg>
