<svg width="61" height="61" viewBox="0 0 61 61" fill="none" xmlns="http://www.w3.org/2000/svg">
<path d="M12.6445 1.26465H48.0479C54.3327 1.26465 59.4277 6.35964 59.4277 12.6445V48.0479C59.4277 54.3328 54.3327 59.4277 48.0479 59.4277H12.6445C6.35963 59.4277 1.26465 54.3327 1.26465 48.0479V12.6445C1.26465 6.35963 6.35964 1.26465 12.6445 1.26465Z" stroke="#E61D25" stroke-width="2.52885"/>
<mask id="mask0_9956_578" style="mask-type:alpha" maskUnits="userSpaceOnUse" x="13" y="13" width="35" height="35">
<rect x="13.3457" y="13.3462" width="34" height="34" fill="#D9D9D9"/>
</mask>
<g mask="url(#mask0_9956_578)">
<path d="M29.2832 31.4034V21.9606C27.498 22.1641 26.0481 22.9841 24.9337 24.4206C23.8195 25.8573 23.2624 27.3603 23.2624 28.9295H22.554C21.1846 28.9295 20.0158 29.4135 19.0478 30.3816C18.0797 31.3496 17.5957 32.5184 17.5957 33.8878C17.5957 35.2573 18.0797 36.426 19.0478 37.3941C20.0158 38.3621 21.1846 38.8462 22.554 38.8462H39.554C40.5457 38.8462 41.3839 38.5038 42.0686 37.8191C42.7533 37.1344 43.0957 36.2962 43.0957 35.3045C43.0957 34.3128 42.7533 33.4746 42.0686 32.7899C41.3839 32.1052 40.5457 31.7628 39.554 31.7628H37.429V28.9295C37.429 27.778 37.1693 26.7123 36.6499 25.7324C36.1304 24.7526 35.4457 23.9294 34.5957 23.2628V20.7727C36.134 21.5538 37.345 22.678 38.2287 24.1454C39.1123 25.6131 39.554 27.2078 39.554 28.9295V29.6378H39.99C41.4829 29.754 42.728 30.3543 43.7251 31.4388C44.7222 32.523 45.2207 33.8116 45.2207 35.3045C45.2207 36.8846 44.6713 38.224 43.5724 39.3229C42.4735 40.4217 41.1341 40.9712 39.554 40.9712H22.554C20.5962 40.9712 18.9262 40.2909 17.544 38.9305C16.1618 37.5702 15.4707 35.9112 15.4707 33.9534C15.4707 32.2205 16.0256 30.6794 17.1353 29.3301C18.245 27.9805 19.6607 27.1822 21.3825 26.9352C21.7021 25.208 22.6443 23.593 24.2091 22.0902C25.7738 20.5871 27.4651 19.8356 29.2832 19.8356C29.8626 19.8356 30.3616 20.0449 30.7803 20.4635C31.1989 20.8821 31.4082 21.3812 31.4082 21.9606V31.4034L33.2552 29.578C33.4514 29.3818 33.6943 29.2814 33.9841 29.2769C34.2738 29.2725 34.5285 29.38 34.7483 29.5996C34.9535 29.805 35.0561 30.0539 35.0561 30.3462C35.0561 30.6385 34.9535 30.8873 34.7483 31.0928L31.2421 34.599C30.9859 34.855 30.6871 34.9829 30.3457 34.9829C30.0043 34.9829 29.7055 34.855 29.4493 34.599L25.9431 31.0928C25.7471 30.8966 25.6432 30.6536 25.6314 30.3639C25.6196 30.0742 25.7235 29.8194 25.9431 29.5996C26.1485 29.3944 26.3937 29.2882 26.6787 29.2808C26.9639 29.2738 27.2164 29.3728 27.4362 29.578L29.2832 31.4034Z" fill="#E61D25"/>
</g>
</svg>
