<svg width="32" height="32" viewBox="0 0 32 32" fill="none" xmlns="http://www.w3.org/2000/svg">
<path d="M0 16C0 7.16344 7.16344 0 16 0C24.8366 0 32 7.16344 32 16C32 24.8366 24.8366 32 16 32C7.16344 32 0 24.8366 0 16Z" fill="black"/>
<path d="M14.1072 13.8754V13.0968C13.8405 13.0612 13.5693 13.0389 13.2892 13.0389C9.95054 13.0345 7.23425 15.753 7.23425 19.099C7.23425 21.1501 8.25675 22.9655 9.82162 24.0645C8.81245 22.9833 8.19451 21.5283 8.19451 19.9355C8.19451 16.6384 10.8352 13.951 14.1072 13.8754Z" fill="#25F4EE"/>
<path d="M14.2539 22.703C15.7432 22.703 16.9613 21.515 17.0147 20.0378L17.0191 6.83649H19.4286C19.3797 6.56507 19.3531 6.28476 19.3531 6H16.0633L16.0588 19.2013C16.0055 20.6785 14.7874 21.8665 13.2981 21.8665C12.8357 21.8665 12.4001 21.7508 12.0133 21.5461C12.5112 22.2447 13.3292 22.703 14.2539 22.703Z" fill="#25F4EE"/>
<path d="M23.9322 11.317V10.5829C23.012 10.5829 22.1584 10.3114 21.4382 9.83978C22.0784 10.574 22.9453 11.1079 23.9322 11.317Z" fill="#25F4EE"/>
<path d="M21.4382 9.8398C20.7357 9.03448 20.3134 7.98443 20.3134 6.83649H19.4332C19.6599 8.09122 20.4068 9.16798 21.4382 9.8398Z" fill="#FE2C55"/>
<path d="M13.2936 16.327C11.7688 16.327 10.5284 17.5684 10.5284 19.0945C10.5284 20.158 11.133 21.0834 12.0133 21.5461C11.6843 21.0923 11.4887 20.5361 11.4887 19.931C11.4887 18.4049 12.729 17.1635 14.2539 17.1635C14.5384 17.1635 14.814 17.2124 15.0719 17.2925V13.9288C14.8051 13.8932 14.534 13.8709 14.2539 13.8709C14.205 13.8709 14.1605 13.8754 14.1116 13.8754V16.456C13.8493 16.3759 13.5781 16.327 13.2936 16.327Z" fill="#FE2C55"/>
<path d="M23.932 11.317V13.8754C22.2249 13.8754 20.6422 13.3282 19.353 12.4027V19.099C19.353 22.4405 16.6367 25.1635 13.2936 25.1635C12.0043 25.1635 10.804 24.7542 9.82153 24.0645C10.9285 25.2525 12.5067 26 14.2539 26C17.5925 26 20.3133 23.2814 20.3133 19.9355V13.2391C21.6025 14.1646 23.1851 14.7119 24.8922 14.7119V11.4194C24.5588 11.4194 24.2387 11.3838 23.932 11.317Z" fill="#FE2C55"/>
<path d="M19.353 19.099V12.4026C20.6423 13.3281 22.2249 13.8754 23.932 13.8754V11.317C22.9451 11.1079 22.0782 10.574 21.438 9.8398C20.4066 9.16798 19.6642 8.09122 19.4286 6.83649H17.019L17.0146 20.0378C16.9613 21.515 15.7431 22.703 14.2539 22.703C13.3292 22.703 12.5156 22.2447 12.0088 21.5506C11.1286 21.0834 10.524 20.1624 10.524 19.099C10.524 17.5729 11.7643 16.3315 13.2892 16.3315C13.5737 16.3315 13.8493 16.3804 14.1072 16.4605V13.8798C10.8352 13.951 8.19446 16.6384 8.19446 19.9355C8.19446 21.5283 8.8124 22.9789 9.82156 24.0645C10.804 24.7542 12.0044 25.1635 13.2936 25.1635C16.6323 25.1635 19.353 22.4405 19.353 19.099Z" fill="white"/>
</svg>
