<svg width="22" height="22" viewBox="0 0 22 22" fill="none" xmlns="http://www.w3.org/2000/svg">
<g id="Instagram">
<rect width="22" height="22" rx="11" fill="#FF2063"/>
<path id="Vector" d="M11.0018 5.58958C12.7653 5.58958 12.9723 5.59744 13.6694 5.62889C14.314 5.65771 14.6625 5.76515 14.8957 5.85686C15.2049 5.9774 15.4251 6.11891 15.6556 6.34951C15.8862 6.5801 16.0304 6.80022 16.1483 7.10943C16.2374 7.34265 16.3474 7.69117 16.3763 8.33579C16.4077 9.03283 16.4156 9.23984 16.4156 11.0034C16.4156 12.7669 16.4077 12.974 16.3763 13.671C16.3474 14.3156 16.24 14.6641 16.1483 14.8974C16.0278 15.2066 15.8862 15.4267 15.6556 15.6573C15.4251 15.8879 15.2049 16.032 14.8957 16.1499C14.6625 16.239 14.314 16.3491 13.6694 16.3779C12.9723 16.4094 12.7653 16.4172 11.0018 16.4172C9.2382 16.4172 9.03119 16.4094 8.33415 16.3779C7.68953 16.3491 7.34101 16.2416 7.10779 16.1499C6.79858 16.0294 6.57846 15.8879 6.34786 15.6573C6.11726 15.4267 5.97314 15.2066 5.85522 14.8974C5.76613 14.6641 5.65607 14.3156 5.62724 13.671C5.5958 12.974 5.58794 12.7669 5.58794 11.0034C5.58794 9.23984 5.5958 9.03283 5.62724 8.33579C5.65607 7.69117 5.76351 7.34265 5.85522 7.10943C5.97576 6.80022 6.11726 6.5801 6.34786 6.34951C6.57846 6.11891 6.79858 5.97478 7.10779 5.85686C7.34101 5.76777 7.68953 5.65771 8.33415 5.62889C9.03119 5.59482 9.24082 5.58958 11.0018 5.58958ZM11.0018 4.3999C9.20938 4.3999 8.98402 4.40776 8.27912 4.43921C7.57685 4.47065 7.09731 4.58333 6.67804 4.7458C6.24305 4.91351 5.87618 5.14149 5.50932 5.50835C5.14246 5.87521 4.9171 6.24469 4.74678 6.67706C4.58431 7.09633 4.47163 7.57587 4.44019 8.28077C4.40874 8.98304 4.40088 9.2084 4.40088 11.0008C4.40088 12.7932 4.40874 13.0185 4.44019 13.7234C4.47163 14.4257 4.58431 14.9052 4.74678 15.3271C4.91448 15.7621 5.14246 16.129 5.50932 16.4958C5.87618 16.8627 6.24567 17.088 6.67804 17.2584C7.09731 17.4208 7.57685 17.5335 8.28174 17.565C8.98664 17.5964 9.20938 17.6043 11.0044 17.6043C12.7994 17.6043 13.0221 17.5964 13.727 17.565C14.4293 17.5335 14.9088 17.4208 15.3307 17.2584C15.7657 17.0907 16.1326 16.8627 16.4994 16.4958C16.8663 16.129 17.0916 15.7595 17.262 15.3271C17.4244 14.9078 17.5371 14.4283 17.5686 13.7234C17.6 13.0185 17.6079 12.7958 17.6079 11.0008C17.6079 9.20578 17.6 8.98304 17.5686 8.27814C17.5371 7.57587 17.4244 7.09633 17.262 6.67444C17.0943 6.23945 16.8663 5.87259 16.4994 5.50573C16.1326 5.13886 15.7631 4.91351 15.3307 4.74318C14.9114 4.58071 14.4319 4.46803 13.727 4.43659C13.0195 4.40776 12.7941 4.3999 11.0018 4.3999Z" fill="white"/>
<path id="Vector_2" d="M11.0017 7.61255C9.13075 7.61255 7.6109 9.12978 7.6109 11.0034C7.6109 12.877 9.12813 14.3942 11.0017 14.3942C12.8754 14.3942 14.3926 12.877 14.3926 11.0034C14.3926 9.12978 12.8754 7.61255 11.0017 7.61255ZM11.0017 13.2019C9.78586 13.2019 8.80058 12.2166 8.80058 11.0008C8.80058 9.78489 9.78586 8.7996 11.0017 8.7996C12.2176 8.7996 13.2029 9.78489 13.2029 11.0008C13.2029 12.2166 12.2176 13.2019 11.0017 13.2019Z" fill="white"/>
<path id="Vector_3" d="M14.5262 8.2678C14.9633 8.2678 15.3176 7.91349 15.3176 7.47643C15.3176 7.03937 14.9633 6.68506 14.5262 6.68506C14.0892 6.68506 13.7349 7.03937 13.7349 7.47643C13.7349 7.91349 14.0892 8.2678 14.5262 8.2678Z" fill="white"/>
</g>
</svg>
