<svg width="22" height="22" viewBox="0 0 22 22" fill="none" xmlns="http://www.w3.org/2000/svg">
<g id="LinkedIn">
<rect width="22" height="22" rx="11" fill="#0A66C2"/>
<path id="Vector" d="M16.1568 4.94995H5.84321C5.60632 4.94995 5.37912 5.04406 5.21161 5.21157C5.0441 5.37908 4.95 5.60627 4.95 5.84317V16.1567C4.95 16.3936 5.0441 16.6208 5.21161 16.7883C5.37912 16.9558 5.60632 17.05 5.84321 17.05H16.1568C16.3937 17.05 16.6209 16.9558 16.7884 16.7883C16.9559 16.6208 17.05 16.3936 17.05 16.1567V5.84317C17.05 5.60627 16.9559 5.37908 16.7884 5.21157C16.6209 5.04406 16.3937 4.94995 16.1568 4.94995ZM8.55647 15.2576H6.73727V9.47905H8.55647V15.2576ZM7.64561 8.67826C7.43925 8.6771 7.23786 8.61484 7.06686 8.49933C6.89585 8.38382 6.7629 8.22024 6.68477 8.02924C6.60665 7.83824 6.58685 7.62838 6.62788 7.42614C6.66891 7.2239 6.76893 7.03835 6.91532 6.8929C7.0617 6.74745 7.2479 6.64862 7.45039 6.60889C7.65289 6.56916 7.86262 6.5903 8.05312 6.66966C8.24361 6.74901 8.40633 6.88301 8.52074 7.05475C8.63515 7.22649 8.69612 7.42828 8.69596 7.63464C8.6979 7.7728 8.67201 7.90993 8.61983 8.03787C8.56765 8.16581 8.49025 8.28194 8.39223 8.37933C8.29421 8.47671 8.1776 8.55337 8.04932 8.60473C7.92105 8.65609 7.78375 8.6811 7.64561 8.67826ZM15.2619 15.2627H13.4435V12.1058C13.4435 11.1747 13.0478 10.8874 12.5369 10.8874C11.9974 10.8874 11.468 11.294 11.468 12.1293V15.2627H9.64883V9.48325H11.3983V10.284H11.4218C11.5974 9.9286 12.2125 9.32108 13.1511 9.32108C14.1662 9.32108 15.2627 9.92356 15.2627 11.6881L15.2619 15.2627Z" fill="white"/>
</g>
</svg>
