<?xml version="1.0" encoding="utf-8"?>
<!-- Generator: Adobe Illustrator 16.0.0, SVG Export Plug-In . SVG Version: 6.00 Build 0)  -->
<!DOCTYPE svg PUBLIC "-//W3C//DTD SVG 1.1//EN" "http://www.w3.org/Graphics/SVG/1.1/DTD/svg11.dtd">
<svg version="1.1" id="Layer_1" xmlns="http://www.w3.org/2000/svg" xmlns:xlink="http://www.w3.org/1999/xlink" x="0px" y="0px"
	 width="198px" height="57px" viewBox="0 0 198 57" enable-background="new 0 0 198 57" xml:space="preserve">
<g>
	<path fill="#010101" d="M97.97,27.945c0.423,3.22,3.222,5.544,7.763,5.544c2.376,0,5.491-0.899,6.969-2.43l4.119,4.065
		c-2.746,2.853-7.235,4.225-11.194,4.225c-8.977,0-14.309-5.544-14.309-13.886c0-7.921,5.386-13.624,13.834-13.624
		c8.712,0,14.151,5.385,13.147,16.105H97.97z M112.12,22.611c-0.421-3.379-3.061-5.069-6.757-5.069c-3.485,0-6.336,1.69-7.288,5.069
		H112.12z"/>
	<path fill="#010101" d="M140.318,38.663V25.04c0-3.96-2.164-6.97-6.283-6.97c-3.96,0-6.652,3.326-6.652,7.287v13.306h-6.391V12.579
		h5.756l0.422,3.537c2.641-2.586,5.281-3.907,8.556-3.907c6.125,0,11.035,4.594,11.035,12.779v13.675H140.318z"/>
	<path fill="#010101" d="M158.166,5.292v7.393h7.182v5.543h-7.234v11.249c0,2.479,1.374,3.694,3.38,3.694
		c1.003,0,2.165-0.315,3.115-0.792l1.796,5.493c-1.848,0.738-3.38,1.055-5.334,1.108c-5.65,0.211-9.346-3.011-9.346-9.504V18.228
		h-4.858v-5.543h4.858V5.979L158.166,5.292z"/>
	<path fill="#010101" d="M188.686,12.632h6.179v26.031h-6.073l-0.315-3.802c-1.479,3.063-5.545,4.541-8.45,4.594
		c-7.709,0.053-13.41-4.699-13.41-13.834c0-8.977,5.965-13.676,13.569-13.623c3.484,0,6.812,1.637,8.291,4.224L188.686,12.632z
		 M173.057,25.621c0,4.963,3.432,7.92,7.709,7.92c10.139,0,10.139-15.788,0-15.788C176.488,17.753,173.057,20.658,173.057,25.621z"
		/>
</g>
<g>
	<path fill="#010101" d="M24.925,12.632h6.178v26.031h-6.073l-0.317-3.802c-1.479,3.063-5.544,4.541-8.448,4.594
		C8.557,39.508,2.854,34.756,2.854,25.621c0-8.977,5.967-13.676,13.571-13.623c3.485,0,6.811,1.637,8.29,4.224L24.925,12.632z
		 M9.296,25.621c0,4.963,3.432,7.92,7.709,7.92c10.138,0,10.138-15.788,0-15.788C12.728,17.753,9.296,20.658,9.296,25.621z"/>
	<path fill="#010101" d="M39.764,12.632v13.623c0,3.959,2.165,6.971,6.283,6.971c3.96,0,6.653-3.327,6.653-7.288V12.632h6.389
		v26.084h-5.756l-0.422-3.538c-2.694,2.642-5.175,3.908-8.818,3.908c-6.231,0-10.772-4.701-10.772-12.779V12.632H39.764z"/>
</g>
<g>
	<polygon fill="#1578A9" points="61.044,4.978 68.174,4.978 92.762,38.663 85.141,38.663 	"/>
	<polygon fill="#1578A9" points="68.174,38.663 92.762,4.978 85.141,4.978 61.044,38.663 	"/>
</g>
<g>
	<path fill="#524F4F" d="M5.61,51.239v-7.076h4.301v0.91H6.588v2.175h3.015v0.918H6.588v2.165h3.323v0.908H5.61z"/>
	<path fill="#524F4F" d="M13.692,51.239h-0.938v-4.8h0.918v0.689c0.35-0.6,0.918-0.829,1.477-0.829c1.148,0,1.717,0.829,1.717,1.896
		v3.043h-0.938v-2.883c0-0.669-0.28-1.208-1.118-1.208c-0.739,0-1.119,0.588-1.119,1.316V51.239z"/>
	<path fill="#524F4F" d="M21.117,48.494l1.297-0.188c0.289-0.041,0.369-0.191,0.369-0.359c0-0.47-0.309-0.859-1.038-0.859
		c-0.659,0-1.028,0.409-1.088,0.969l-0.899-0.211c0.101-0.917,0.929-1.555,1.967-1.555c1.437,0,1.996,0.817,1.996,1.755v2.405
		c0,0.419,0.04,0.669,0.059,0.788h-0.918c-0.02-0.119-0.05-0.299-0.05-0.648c-0.209,0.339-0.688,0.799-1.546,0.799
		c-0.978,0-1.606-0.68-1.606-1.437C19.66,49.094,20.289,48.615,21.117,48.494z M22.783,49.184v-0.22l-1.467,0.22
		c-0.398,0.061-0.698,0.291-0.698,0.72c0,0.358,0.3,0.698,0.778,0.698C22.165,50.602,22.783,50.231,22.783,49.184z"/>
	<path fill="#524F4F" d="M26.774,51.239v-7.224h0.928v3.103c0.229-0.429,0.789-0.818,1.586-0.818c1.458,0,2.206,1.118,2.206,2.515
		c0,1.427-0.808,2.556-2.235,2.556c-0.708,0-1.257-0.31-1.557-0.829v0.698H26.774z M29.119,47.129c-0.828,0-1.427,0.647-1.427,1.686
		s0.599,1.717,1.427,1.717c0.858,0,1.417-0.679,1.417-1.717S29.987,47.129,29.119,47.129z"/>
	<path fill="#524F4F" d="M34.288,51.239v-7.224h0.938v7.224H34.288z"/>
	<path fill="#524F4F" d="M38.877,43.945c0.379,0,0.679,0.3,0.679,0.678c0,0.369-0.299,0.668-0.679,0.668
		c-0.369,0-0.668-0.299-0.668-0.668C38.209,44.245,38.508,43.945,38.877,43.945z M38.419,51.239v-4.8h0.928v4.8H38.419z"/>
	<path fill="#524F4F" d="M43.478,51.239H42.54v-4.8h0.918v0.689c0.35-0.6,0.918-0.829,1.478-0.829c1.147,0,1.715,0.829,1.715,1.896
		v3.043h-0.938v-2.883c0-0.669-0.279-1.208-1.118-1.208c-0.738,0-1.117,0.588-1.117,1.316V51.239z"/>
	<path fill="#524F4F" d="M50.303,51.289c0.07,0.669,0.579,1.178,1.307,1.178c1.008,0,1.468-0.519,1.468-1.557v-0.689
		c-0.229,0.439-0.749,0.789-1.468,0.789c-1.277,0-2.205-0.968-2.205-2.324c0-1.299,0.888-2.335,2.205-2.335
		c0.739,0,1.238,0.278,1.478,0.758v-0.669h0.928v4.44c0,1.219-0.599,2.405-2.405,2.405c-1.197,0-2.095-0.758-2.215-1.786
		L50.303,51.289z M53.117,48.686c0-0.929-0.559-1.537-1.368-1.537c-0.828,0-1.387,0.608-1.387,1.537
		c0,0.938,0.539,1.535,1.387,1.535C52.558,50.221,53.117,49.613,53.117,48.686z"/>
	<path fill="#524F4F" d="M61.298,51.239v-7.076h2.475c1.796,0,3.363,1.229,3.363,3.554c0,2.314-1.586,3.522-3.382,3.522H61.298z
		 M63.723,50.371c1.307,0,2.405-0.878,2.405-2.654c0-1.787-1.078-2.685-2.384-2.685h-1.467v5.339H63.723z"/>
	<path fill="#524F4F" d="M70.438,43.945c0.379,0,0.678,0.3,0.678,0.678c0,0.369-0.299,0.668-0.678,0.668
		c-0.37,0-0.669-0.299-0.669-0.668C69.77,44.245,70.069,43.945,70.438,43.945z M69.979,51.239v-4.8h0.928v4.8H69.979z"/>
	<path fill="#524F4F" d="M74.658,51.289c0.07,0.669,0.58,1.178,1.308,1.178c1.008,0,1.467-0.519,1.467-1.557v-0.689
		c-0.229,0.439-0.749,0.789-1.467,0.789c-1.278,0-2.206-0.968-2.206-2.324c0-1.299,0.889-2.335,2.206-2.335
		c0.738,0,1.238,0.278,1.477,0.758v-0.669h0.928v4.44c0,1.219-0.599,2.405-2.405,2.405c-1.198,0-2.096-0.758-2.215-1.786
		L74.658,51.289z M77.473,48.686c0-0.929-0.559-1.537-1.367-1.537c-0.828,0-1.387,0.608-1.387,1.537
		c0,0.938,0.539,1.535,1.387,1.535C76.915,50.221,77.473,49.613,77.473,48.686z"/>
	<path fill="#524F4F" d="M81.922,43.945c0.379,0,0.679,0.3,0.679,0.678c0,0.369-0.3,0.668-0.679,0.668
		c-0.369,0-0.668-0.299-0.668-0.668C81.254,44.245,81.553,43.945,81.922,43.945z M81.464,51.239v-4.8h0.928v4.8H81.464z"/>
	<path fill="#524F4F" d="M86.841,46.439h1.039v0.849h-1.039v2.494c0,0.438,0.181,0.659,0.669,0.659c0.12,0,0.29-0.021,0.369-0.04
		v0.798c-0.08,0.031-0.319,0.09-0.639,0.09c-0.818,0-1.336-0.498-1.336-1.368v-2.633h-0.918v-0.849h0.26
		c0.519,0,0.738-0.32,0.738-0.737v-0.779h0.857V46.439z"/>
	<path fill="#524F4F" d="M91.881,48.494l1.297-0.188c0.29-0.041,0.37-0.191,0.37-0.359c0-0.47-0.31-0.859-1.038-0.859
		c-0.659,0-1.028,0.409-1.088,0.969l-0.898-0.211c0.1-0.917,0.928-1.555,1.965-1.555c1.437,0,1.997,0.817,1.997,1.755v2.405
		c0,0.419,0.04,0.669,0.06,0.788h-0.918c-0.02-0.119-0.05-0.299-0.05-0.648c-0.21,0.339-0.689,0.799-1.547,0.799
		c-0.978,0-1.606-0.68-1.606-1.437C90.424,49.094,91.052,48.615,91.881,48.494z M93.547,49.184v-0.22l-1.466,0.22
		c-0.4,0.061-0.699,0.291-0.699,0.72c0,0.358,0.299,0.698,0.778,0.698C92.929,50.602,93.547,50.231,93.547,49.184z"/>
	<path fill="#524F4F" d="M97.538,51.239v-7.224h0.938v7.224H97.538z"/>
	<path fill="#524F4F" d="M108.404,45.073v6.166h-0.978v-6.166h-2.364v-0.91h5.708v0.91H108.404z"/>
	<path fill="#524F4F" d="M115.329,47.387c-0.139-0.02-0.278-0.028-0.409-0.028c-0.787,0-1.315,0.418-1.315,1.477v2.404h-0.939v-4.8
		h0.918v0.838c0.351-0.738,0.948-0.918,1.438-0.918c0.13,0,0.259,0.02,0.309,0.031V47.387z"/>
	<path fill="#524F4F" d="M119.08,48.494l1.298-0.188c0.289-0.041,0.369-0.191,0.369-0.359c0-0.47-0.309-0.859-1.038-0.859
		c-0.657,0-1.026,0.409-1.088,0.969l-0.897-0.211c0.1-0.917,0.928-1.555,1.967-1.555c1.436,0,1.995,0.817,1.995,1.755v2.405
		c0,0.419,0.04,0.669,0.061,0.788h-0.919c-0.02-0.119-0.05-0.299-0.05-0.648c-0.209,0.339-0.688,0.799-1.547,0.799
		c-0.979,0-1.606-0.68-1.606-1.437C117.624,49.094,118.251,48.615,119.08,48.494z M120.747,49.184v-0.22l-1.467,0.22
		c-0.399,0.061-0.698,0.291-0.698,0.72c0,0.358,0.299,0.698,0.777,0.698C120.128,50.602,120.747,50.231,120.747,49.184z"/>
	<path fill="#524F4F" d="M125.677,51.239h-0.938v-4.8h0.919v0.689c0.348-0.6,0.917-0.829,1.476-0.829
		c1.148,0,1.718,0.829,1.718,1.896v3.043h-0.939v-2.883c0-0.669-0.278-1.208-1.117-1.208c-0.738,0-1.117,0.588-1.117,1.316V51.239z"
		/>
	<path fill="#524F4F" d="M132.343,49.692c0.059,0.499,0.438,0.898,1.115,0.898c0.529,0,0.82-0.3,0.82-0.638
		c0-0.301-0.22-0.529-0.62-0.62l-0.816-0.179c-0.749-0.159-1.198-0.669-1.198-1.348c0-0.817,0.769-1.516,1.706-1.516
		c1.317,0,1.727,0.857,1.827,1.286l-0.829,0.309c-0.04-0.25-0.24-0.798-0.998-0.798c-0.479,0-0.798,0.311-0.798,0.64
		c0,0.288,0.179,0.498,0.549,0.579l0.777,0.169c0.869,0.189,1.327,0.719,1.327,1.428c0,0.678-0.568,1.486-1.756,1.486
		c-1.316,0-1.875-0.849-1.955-1.397L132.343,49.692z"/>
	<path fill="#524F4F" d="M139.308,47.288v3.951h-0.97v-3.951h-0.887v-0.849h0.887v-0.809c0-1.067,0.711-1.646,1.577-1.646
		c0.319,0,0.52,0.068,0.561,0.1v0.838c-0.05-0.021-0.17-0.06-0.41-0.06c-0.329,0-0.758,0.16-0.758,0.818v0.758h1.156v0.849H139.308z
		"/>
	<path fill="#524F4F" d="M147.38,48.835c0,1.467-1.019,2.555-2.455,2.555c-1.438,0-2.455-1.088-2.455-2.555
		c0-1.458,1.018-2.544,2.455-2.544C146.361,46.291,147.38,47.377,147.38,48.835z M146.421,48.835c0-1.107-0.697-1.706-1.496-1.706
		s-1.497,0.599-1.497,1.706c0,1.118,0.698,1.715,1.497,1.715S146.421,49.953,146.421,48.835z"/>
	<path fill="#524F4F" d="M152.837,47.387c-0.14-0.02-0.278-0.028-0.409-0.028c-0.788,0-1.317,0.418-1.317,1.477v2.404h-0.939v-4.8
		h0.919v0.838c0.35-0.738,0.949-0.918,1.438-0.918c0.13,0,0.26,0.02,0.31,0.031V47.387z"/>
	<path fill="#524F4F" d="M155.432,51.239v-4.8h0.897v0.639c0.3-0.528,0.899-0.778,1.456-0.778c0.601,0,1.179,0.289,1.438,0.908
		c0.379-0.688,0.998-0.908,1.605-0.908c0.839,0,1.657,0.569,1.657,1.825v3.114h-0.928v-3.014c0-0.628-0.311-1.097-1.018-1.097
		c-0.658,0-1.107,0.519-1.107,1.206v2.904h-0.938v-3.014c0-0.617-0.3-1.097-1.018-1.097c-0.669,0-1.119,0.498-1.119,1.217v2.894
		H155.432z"/>
	<path fill="#524F4F" d="M166.736,48.494l1.297-0.188c0.29-0.041,0.369-0.191,0.369-0.359c0-0.47-0.31-0.859-1.037-0.859
		c-0.659,0-1.028,0.409-1.088,0.969l-0.899-0.211c0.101-0.917,0.93-1.555,1.967-1.555c1.437,0,1.995,0.817,1.995,1.755v2.405
		c0,0.419,0.04,0.669,0.061,0.788h-0.917c-0.021-0.119-0.05-0.299-0.05-0.648c-0.21,0.339-0.689,0.799-1.547,0.799
		c-0.979,0-1.608-0.68-1.608-1.437C165.278,49.094,165.907,48.615,166.736,48.494z M168.402,49.184v-0.22l-1.466,0.22
		c-0.399,0.061-0.7,0.291-0.7,0.72c0,0.358,0.301,0.698,0.78,0.698C167.784,50.602,168.402,50.231,168.402,49.184z"/>
	<path fill="#524F4F" d="M173.651,46.439h1.037v0.849h-1.037v2.494c0,0.438,0.18,0.659,0.668,0.659c0.12,0,0.29-0.021,0.369-0.04
		v0.798c-0.079,0.031-0.319,0.09-0.638,0.09c-0.818,0-1.338-0.498-1.338-1.368v-2.633h-0.918v-0.849h0.26
		c0.519,0,0.737-0.32,0.737-0.737v-0.779h0.859V46.439z"/>
	<path fill="#524F4F" d="M177.992,43.945c0.379,0,0.678,0.3,0.678,0.678c0,0.369-0.299,0.668-0.678,0.668
		c-0.37,0-0.669-0.299-0.669-0.668C177.323,44.245,177.622,43.945,177.992,43.945z M177.533,51.239v-4.8h0.928v4.8H177.533z"/>
	<path fill="#524F4F" d="M186.164,48.835c0,1.467-1.018,2.555-2.456,2.555c-1.436,0-2.455-1.088-2.455-2.555
		c0-1.458,1.02-2.544,2.455-2.544C185.146,46.291,186.164,47.377,186.164,48.835z M185.206,48.835c0-1.107-0.698-1.706-1.498-1.706
		c-0.797,0-1.496,0.599-1.496,1.706c0,1.118,0.699,1.715,1.496,1.715C184.508,50.55,185.206,49.953,185.206,48.835z"/>
	<path fill="#524F4F" d="M189.896,51.239h-0.938v-4.8h0.919v0.689c0.35-0.6,0.917-0.829,1.477-0.829
		c1.147,0,1.716,0.829,1.716,1.896v3.043h-0.938v-2.883c0-0.669-0.278-1.208-1.117-1.208c-0.738,0-1.117,0.588-1.117,1.316V51.239z"
		/>
</g>
</svg>
