<?xml version="1.0" encoding="utf-8"?>
<!-- Generator: Adobe Illustrator 23.0.5, SVG Export Plug-In . SVG Version: 6.00 Build 0)  -->
<svg version="1.1" id="Layer_1" xmlns="http://www.w3.org/2000/svg" xmlns:xlink="http://www.w3.org/1999/xlink" x="0px" y="0px"
	 viewBox="0 0 439.4 150" style="enable-background:new 0 0 439.4 150;" xml:space="preserve">
<style type="text/css">
	.st0{fill:#585858;}
	.st1{fill:#E50914;}
	.st2{fill:#FFFFFF;}
</style>
<g>
	<path d="M133.8,104.2h-20V5.8H134V43c1.5-2.3,4.1-4.2,7.6-5.7c3.5-1.5,7.5-2.3,12-2.3c9.6,0,17.2,3.3,22.9,9.9
		c5.7,6.6,8.5,15,8.5,25.4s-3,18.8-9,25.5c-6,6.7-13.8,10-23.2,10c-4.4,0-8.2-0.8-11.6-2.5c-3.4-1.7-5.8-3.9-7.5-6.6V104.2z
		 M164.4,70.4c0-5.4-1.5-9.6-4.4-12.4c-2.9-2.9-6.5-4.3-10.9-4.3c-4.4,0-8,1.4-10.9,4.3c-2.9,2.9-4.4,7-4.4,12.4
		c0,5.4,1.5,9.5,4.5,12.4c3,2.9,6.6,4.4,10.9,4.4c4.3,0,7.9-1.5,10.8-4.4C162.9,79.9,164.4,75.7,164.4,70.4z"/>
	<path d="M189.3,24.5c-2.4-2.4-3.5-5.2-3.5-8.6c0-3.4,1.2-6.2,3.5-8.6c2.4-2.4,5.2-3.5,8.4-3.5c3.4,0,6.2,1.2,8.6,3.5
		c2.4,2.4,3.6,5.2,3.6,8.6c0,3.4-1.2,6.2-3.6,8.6c-2.4,2.4-5.3,3.5-8.6,3.5C194.4,28.1,191.6,26.9,189.3,24.5z M208.2,104.2h-20.7
		V36.6h20.7V104.2z"/>
	<path d="M236,104.2h-20.7V5.8H236V104.2z"/>
	<path d="M264.1,104.2h-20.7V5.8h20.7V104.2z"/>
	<path d="M273.2,24.5c-2.4-2.4-3.5-5.2-3.5-8.6c0-3.4,1.2-6.2,3.5-8.6c2.4-2.4,5.2-3.5,8.4-3.5c3.4,0,6.2,1.2,8.6,3.5
		c2.4,2.4,3.6,5.2,3.6,8.6c0,3.4-1.2,6.2-3.6,8.6c-2.4,2.4-5.3,3.5-8.6,3.5C278.3,28.1,275.5,26.9,273.2,24.5z M292.1,104.2h-20.7
		V36.6h20.7V104.2z"/>
	<path d="M330.3,34.6c10.2,0,18.8,3.4,25.6,10.1c6.8,6.7,10.3,15.3,10.3,25.7c0,10.4-3.4,19-10.3,25.8c-6.8,6.8-15.4,10.1-25.6,10.1
		c-10.2,0-18.7-3.4-25.6-10.2c-6.9-6.8-10.3-15.4-10.3-25.7c0-10.3,3.4-18.9,10.3-25.6C311.6,38,320.1,34.6,330.3,34.6z M330.3,87.2
		c4.3,0,7.9-1.4,10.8-4.4c2.9-2.9,4.4-7.1,4.4-12.5c0-5.4-1.5-9.6-4.4-12.4c-2.9-2.9-6.6-4.3-10.8-4.3c-4.2,0-7.8,1.5-10.7,4.4
		c-3,2.9-4.5,7-4.5,12.4c0,5.4,1.5,9.5,4.5,12.4C322.5,85.7,326.1,87.2,330.3,87.2z"/>
	<path d="M389.3,65.5v38.8h-20.7V36.6h20v7.8c1.7-3,4.4-5.3,8-7c3.6-1.7,7.2-2.5,10.9-2.5c8.1,0,14.2,2.5,18.4,7.5
		c4.2,5,6.3,11.5,6.3,19.4v42.4h-20.7V65.3c0-3.5-0.9-6.4-2.8-8.5c-1.9-2.1-4.6-3.2-8.2-3.2c-3.4,0-6.1,1.1-8.1,3.3
		C390.3,59.2,389.3,62,389.3,65.5z"/>
</g>
<g>
	<path class="st0" d="M118.7,139.9v-17.2h-6.1v-3.5h16.3v3.5h-6.1v17.2H118.7z"/>
	<path class="st0" d="M144.7,139.9v-20.7h15.2v3.5h-11.1v4.6h10.3v3.5h-10.3v5.6h11.4v3.5H144.7z"/>
	<path class="st0" d="M190,132.3l4,1.3c-0.6,2.3-1.6,3.9-3.1,5s-3.2,1.6-5.4,1.6c-2.7,0-5-0.9-6.7-2.8c-1.8-1.9-2.6-4.4-2.6-7.7
		c0-3.4,0.9-6.1,2.6-8c1.8-1.9,4.1-2.9,6.9-2.9c2.5,0,4.5,0.7,6.1,2.2c0.9,0.9,1.6,2.2,2.1,3.8l-4.1,1c-0.2-1.1-0.7-1.9-1.5-2.5
		c-0.8-0.6-1.7-0.9-2.8-0.9c-1.5,0-2.8,0.6-3.7,1.7c-0.9,1.1-1.4,2.9-1.4,5.4c0,2.6,0.5,4.5,1.4,5.6c0.9,1.1,2.1,1.7,3.6,1.7
		c1.1,0,2-0.4,2.8-1.1C189.1,134.9,189.6,133.8,190,132.3z"/>
	<path class="st0" d="M210.6,139.9v-20.7h4.1v8.1h8.1v-8.1h4.1v20.7h-4.1v-9h-8.1v9H210.6z"/>
	<path class="st0" d="M244.4,139.9v-20.7h4l8.4,13.8v-13.8h3.8v20.7h-4.2l-8.3-13.5v13.5H244.4z"/>
	<path class="st0" d="M277.3,129.7c0-2.1,0.3-3.9,0.9-5.3c0.5-1.1,1.1-2,1.9-2.8c0.8-0.8,1.7-1.5,2.6-1.9c1.3-0.5,2.7-0.8,4.4-0.8
		c3,0,5.4,0.9,7.2,2.8c1.8,1.9,2.7,4.5,2.7,7.9c0,3.3-0.9,6-2.7,7.8c-1.8,1.9-4.2,2.8-7.2,2.8c-3,0-5.5-0.9-7.3-2.8
		S277.3,133,277.3,129.7z M281.6,129.5c0,2.3,0.5,4.1,1.6,5.3c1.1,1.2,2.4,1.8,4.1,1.8s3-0.6,4.1-1.8c1.1-1.2,1.6-3,1.6-5.4
		c0-2.4-0.5-4.1-1.5-5.3c-1-1.2-2.4-1.8-4.1-1.8c-1.7,0-3.1,0.6-4.1,1.8C282.1,125.4,281.6,127.2,281.6,129.5z"/>
	<path class="st0" d="M313.6,139.9v-20.5h4.1v17H328v3.5H313.6z"/>
	<path class="st0" d="M343.2,129.7c0-2.1,0.3-3.9,0.9-5.3c0.5-1.1,1.1-2,1.9-2.8c0.8-0.8,1.7-1.5,2.6-1.9c1.3-0.5,2.7-0.8,4.4-0.8
		c3,0,5.4,0.9,7.2,2.8c1.8,1.9,2.7,4.5,2.7,7.9c0,3.3-0.9,6-2.7,7.8c-1.8,1.9-4.2,2.8-7.2,2.8c-3,0-5.5-0.9-7.3-2.8
		S343.2,133,343.2,129.7z M347.5,129.5c0,2.3,0.5,4.1,1.6,5.3c1.1,1.2,2.4,1.8,4.1,1.8s3-0.6,4.1-1.8c1.1-1.2,1.6-3,1.6-5.4
		c0-2.4-0.5-4.1-1.5-5.3c-1-1.2-2.4-1.8-4.1-1.8c-1.7,0-3.1,0.6-4.1,1.8C348,125.4,347.5,127.2,347.5,129.5z"/>
	<path class="st0" d="M389,132.3v-3.5h8.9v8.2c-0.9,0.8-2.1,1.6-3.8,2.2c-1.6,0.6-3.3,1-5,1c-2.1,0-4-0.5-5.6-1.4s-2.8-2.2-3.6-3.9
		c-0.8-1.7-1.2-3.5-1.2-5.5c0-2.2,0.4-4.1,1.3-5.7s2.2-3,3.9-3.9c1.3-0.7,3-1,4.9-1c2.5,0,4.5,0.5,6,1.6s2.4,2.6,2.8,4.5l-4.1,0.8
		c-0.3-1-0.8-1.8-1.6-2.4c-0.8-0.6-1.8-0.9-3-0.9c-1.8,0-3.2,0.6-4.3,1.7s-1.6,2.9-1.6,5.2c0,2.5,0.5,4.3,1.6,5.5
		c1.1,1.2,2.5,1.8,4.3,1.8c0.9,0,1.7-0.2,2.6-0.5c0.9-0.3,1.6-0.8,2.2-1.2v-2.6H389z"/>
	<path class="st0" d="M420.2,139.9v-8.7l-7.5-12h4.9l4.8,8.2l4.7-8.2h4.8l-7.5,12v8.7H420.2z"/>
</g>
<rect x="4.5" y="6" class="st1" width="101.2" height="98.7"/>
<g>
	<path class="st2" d="M71.6,96.6H52.8V45.9H34.1V33.3c5.7-0.1,10.5-1.5,14.4-4.3c3.9-2.8,6.2-6.3,6.9-10.3h16.2V96.6z"/>
</g>
</svg>
