<?xml version="1.0" encoding="utf-8"?>
<!-- Generator: Adobe Illustrator 23.0.5, SVG Export Plug-In . SVG Version: 6.00 Build 0)  -->
<svg version="1.1" id="Layer_1" xmlns="http://www.w3.org/2000/svg" xmlns:xlink="http://www.w3.org/1999/xlink" x="0px" y="0px"
	 viewBox="0 0 439.4 150" style="enable-background:new 0 0 439.4 150;" xml:space="preserve">
<style type="text/css">
	.st0{fill:#606060;}
	.st1{fill:#212121;}
</style>
<g>
	<path class="st0" d="M133.8,103.2h-20V4.8H134V42c1.5-2.3,4.1-4.2,7.6-5.7c3.5-1.5,7.5-2.3,12-2.3c9.6,0,17.2,3.3,22.9,9.9
		c5.7,6.6,8.5,15,8.5,25.4s-3,18.8-9,25.5c-6,6.7-13.8,10-23.2,10c-4.4,0-8.2-0.8-11.6-2.5c-3.4-1.7-5.8-3.9-7.5-6.6V103.2z
		 M164.4,69.4c0-5.4-1.5-9.6-4.4-12.4c-2.9-2.9-6.5-4.3-10.9-4.3c-4.4,0-8,1.4-10.9,4.3c-2.9,2.9-4.4,7-4.4,12.4
		c0,5.4,1.5,9.5,4.5,12.4c3,2.9,6.6,4.4,10.9,4.4c4.3,0,7.9-1.5,10.8-4.4C162.9,78.9,164.4,74.7,164.4,69.4z"/>
	<path class="st0" d="M189.3,23.5c-2.4-2.4-3.5-5.2-3.5-8.6c0-3.4,1.2-6.2,3.5-8.6c2.4-2.4,5.2-3.5,8.4-3.5c3.4,0,6.2,1.2,8.6,3.5
		c2.4,2.4,3.6,5.2,3.6,8.6c0,3.4-1.2,6.2-3.6,8.6c-2.4,2.4-5.3,3.5-8.6,3.5C194.4,27.1,191.6,25.9,189.3,23.5z M208.2,103.2h-20.7
		V35.6h20.7V103.2z"/>
	<path class="st0" d="M236,103.2h-20.7V4.8H236V103.2z"/>
	<path class="st0" d="M264.1,103.2h-20.7V4.8h20.7V103.2z"/>
	<path class="st0" d="M273.2,23.5c-2.4-2.4-3.5-5.2-3.5-8.6c0-3.4,1.2-6.2,3.5-8.6c2.4-2.4,5.2-3.5,8.4-3.5c3.4,0,6.2,1.2,8.6,3.5
		c2.4,2.4,3.6,5.2,3.6,8.6c0,3.4-1.2,6.2-3.6,8.6c-2.4,2.4-5.3,3.5-8.6,3.5C278.3,27.1,275.5,25.9,273.2,23.5z M292.1,103.2h-20.7
		V35.6h20.7V103.2z"/>
	<path class="st0" d="M330.3,33.6c10.2,0,18.8,3.4,25.6,10.1c6.8,6.7,10.3,15.3,10.3,25.7c0,10.4-3.4,19-10.3,25.8
		c-6.8,6.8-15.4,10.1-25.6,10.1c-10.2,0-18.7-3.4-25.6-10.2c-6.9-6.8-10.3-15.4-10.3-25.7c0-10.3,3.4-18.9,10.3-25.6
		C311.6,37,320.1,33.6,330.3,33.6z M330.3,86.2c4.3,0,7.9-1.4,10.8-4.4c2.9-2.9,4.4-7.1,4.4-12.5c0-5.4-1.5-9.6-4.4-12.4
		c-2.9-2.9-6.6-4.3-10.8-4.3c-4.2,0-7.8,1.5-10.7,4.4c-3,2.9-4.5,7-4.5,12.4c0,5.4,1.5,9.5,4.5,12.4
		C322.5,84.7,326.1,86.2,330.3,86.2z"/>
	<path class="st0" d="M389.3,64.5v38.8h-20.7V35.6h20v7.8c1.7-3,4.4-5.3,8-7c3.6-1.7,7.2-2.5,10.9-2.5c8.1,0,14.2,2.5,18.4,7.5
		c4.2,5,6.3,11.5,6.3,19.4v42.4h-20.7V64.3c0-3.5-0.9-6.4-2.8-8.5c-1.9-2.1-4.6-3.2-8.2-3.2c-3.4,0-6.1,1.1-8.1,3.3
		C390.3,58.2,389.3,61,389.3,64.5z"/>
</g>
<g>
	<path class="st0" d="M119.5,139.9v-18.3h-6.8v-2.4h16.4v2.4h-6.8v18.3H119.5z"/>
	<path class="st0" d="M145.2,139.9v-20.7h15v2.4h-12.2v6.3h11.4v2.4h-11.4v7h12.7v2.4H145.2z"/>
	<path class="st0" d="M192.4,132.7l2.7,0.7c-0.6,2.2-1.6,4-3.1,5.1c-1.5,1.2-3.3,1.8-5.5,1.8c-2.2,0-4-0.5-5.4-1.4s-2.5-2.2-3.2-3.9
		c-0.7-1.7-1.1-3.6-1.1-5.5c0-2.2,0.4-4,1.2-5.6c0.8-1.6,2-2.8,3.5-3.7c1.5-0.8,3.2-1.2,5-1.2c2.1,0,3.8,0.5,5.2,1.6
		c1.4,1.1,2.4,2.5,3,4.4l-2.7,0.6c-0.5-1.5-1.2-2.6-2.1-3.3c-0.9-0.7-2.1-1-3.4-1c-1.6,0-2.9,0.4-4,1.1c-1.1,0.8-1.8,1.8-2.3,3.1
		c-0.4,1.3-0.6,2.6-0.6,4c0,1.8,0.3,3.3,0.8,4.6c0.5,1.3,1.3,2.3,2.4,2.9c1.1,0.6,2.3,1,3.5,1c1.5,0,2.8-0.4,3.9-1.3
		C191.3,135.7,192,134.4,192.4,132.7z"/>
	<path class="st0" d="M211.8,139.9v-20.7h2.7v8.5h10.8v-8.5h2.7v20.7h-2.7v-9.8h-10.8v9.8H211.8z"/>
	<path class="st0" d="M245.8,139.9v-20.7h2.8l10.9,16.2v-16.2h2.6v20.7h-2.8l-10.9-16.3v16.3H245.8z"/>
	<path class="st0" d="M279.1,129.8c0-3.4,0.9-6.1,2.8-8.1s4.2-2.9,7.1-2.9c1.9,0,3.6,0.5,5.2,1.4c1.5,0.9,2.7,2.2,3.5,3.8
		c0.8,1.6,1.2,3.5,1.2,5.6c0,2.1-0.4,4-1.3,5.6c-0.8,1.7-2,2.9-3.6,3.8c-1.6,0.9-3.2,1.3-5,1.3c-1.9,0-3.7-0.5-5.2-1.4
		c-1.5-0.9-2.7-2.2-3.5-3.9C279.5,133.4,279.1,131.6,279.1,129.8z M281.9,129.9c0,2.5,0.7,4.5,2,5.9s3,2.2,5,2.2
		c2.1,0,3.8-0.7,5.1-2.2c1.3-1.4,2-3.5,2-6.2c0-1.7-0.3-3.2-0.9-4.4c-0.6-1.3-1.4-2.2-2.5-2.9c-1.1-0.7-2.3-1-3.7-1
		c-1.9,0-3.6,0.7-5,2S281.9,126.8,281.9,129.9z"/>
	<path class="st0" d="M315.5,139.9v-20.7h2.7v18.3h10.2v2.4H315.5z"/>
	<path class="st0" d="M344,129.8c0-3.4,0.9-6.1,2.8-8.1s4.2-2.9,7.1-2.9c1.9,0,3.6,0.5,5.2,1.4c1.5,0.9,2.7,2.2,3.5,3.8
		c0.8,1.6,1.2,3.5,1.2,5.6c0,2.1-0.4,4-1.3,5.6c-0.8,1.7-2,2.9-3.6,3.8c-1.6,0.9-3.2,1.3-5,1.3c-1.9,0-3.7-0.5-5.2-1.4
		c-1.5-0.9-2.7-2.2-3.5-3.9C344.4,133.4,344,131.6,344,129.8z M346.9,129.9c0,2.5,0.7,4.5,2,5.9s3,2.2,5,2.2c2.1,0,3.8-0.7,5.1-2.2
		c1.3-1.4,2-3.5,2-6.2c0-1.7-0.3-3.2-0.9-4.4c-0.6-1.3-1.4-2.2-2.5-2.9c-1.1-0.7-2.3-1-3.7-1c-1.9,0-3.6,0.7-5,2
		S346.9,126.8,346.9,129.9z"/>
	<path class="st0" d="M390.3,131.8v-2.4l8.8,0v7.7c-1.3,1.1-2.7,1.9-4.2,2.4c-1.4,0.5-2.9,0.8-4.4,0.8c-2,0-3.9-0.4-5.5-1.3
		s-2.9-2.1-3.8-3.8c-0.8-1.6-1.3-3.5-1.3-5.5c0-2,0.4-3.9,1.3-5.6c0.8-1.7,2.1-3,3.6-3.9c1.6-0.8,3.4-1.3,5.5-1.3
		c1.5,0,2.8,0.2,4.1,0.7c1.2,0.5,2.2,1.2,2.8,2c0.7,0.9,1.2,2,1.6,3.4l-2.5,0.7c-0.3-1.1-0.7-1.9-1.2-2.5c-0.5-0.6-1.1-1.1-2-1.4
		s-1.8-0.5-2.9-0.5c-1.3,0-2.3,0.2-3.2,0.6c-0.9,0.4-1.6,0.9-2.2,1.5s-1,1.3-1.3,2c-0.5,1.3-0.8,2.7-0.8,4.2c0,1.8,0.3,3.4,1,4.6
		c0.6,1.2,1.6,2.2,2.8,2.8c1.2,0.6,2.5,0.9,3.9,0.9c1.2,0,2.3-0.2,3.5-0.7c1.1-0.5,2-0.9,2.6-1.5v-3.9H390.3z"/>
	<path class="st0" d="M422.1,139.9v-8.8l-8-11.9h3.3l4.1,6.2c0.8,1.2,1.5,2.3,2.1,3.5c0.6-1.1,1.4-2.3,2.3-3.7l4-6.1h3.2l-8.3,11.9
		v8.8H422.1z"/>
</g>
<rect x="4.5" y="4.9" class="st0" width="101.2" height="99.8"/>
<g>
	<g>
		<path class="st1" d="M71.6,96.6H52.8V45.9H34.1V33.3c5.7-0.1,10.5-1.5,14.4-4.3c3.9-2.8,6.2-6.3,6.9-10.3h16.2V96.6z"/>
	</g>
</g>
</svg>
