<svg width="61" height="61" viewBox="0 0 61 61" fill="none" xmlns="http://www.w3.org/2000/svg">
<path d="M12.6445 1.26465H48.0479C54.3327 1.26465 59.4277 6.35964 59.4277 12.6445V48.0479C59.4277 54.3328 54.3327 59.4277 48.0479 59.4277H12.6445C6.35963 59.4277 1.26465 54.3327 1.26465 48.0479V12.6445C1.26465 6.35963 6.35964 1.26465 12.6445 1.26465Z" stroke="#E61D25" stroke-width="2.52885"/>
<mask id="mask0_9956_573" style="mask-type:alpha" maskUnits="userSpaceOnUse" x="13" y="13" width="35" height="35">
<rect x="13.3457" y="13.3462" width="34" height="34" fill="#D9D9D9"/>
</mask>
<g mask="url(#mask0_9956_573)">
<path d="M30.3464 41.6796C29.0659 41.6796 27.8886 41.3653 26.8142 40.7368C25.7399 40.1085 24.8794 39.2422 24.2327 38.1379H21.138C20.9373 38.1379 20.7691 38.0699 20.6333 37.9339C20.4976 37.7979 20.4297 37.6294 20.4297 37.4285C20.4297 37.2276 20.4976 37.0595 20.6333 36.9242C20.7691 36.7889 20.9373 36.7212 21.138 36.7212H23.6225C23.4065 36.0311 23.2925 35.3288 23.2807 34.6143C23.2689 33.9001 23.263 33.1857 23.263 32.4712H21.138C20.9373 32.4712 20.7691 32.4032 20.6333 32.2672C20.4976 32.1312 20.4297 31.9628 20.4297 31.7618C20.4297 31.5609 20.4976 31.3928 20.6333 31.2575C20.7691 31.1222 20.9373 31.0546 21.138 31.0546H23.263C23.263 30.3281 23.2598 29.6061 23.2535 28.8888C23.2471 28.1713 23.3701 27.4765 23.6225 26.8046H21.138C20.9373 26.8046 20.7691 26.7366 20.6333 26.6006C20.4976 26.4646 20.4297 26.2961 20.4297 26.0952C20.4297 25.8942 20.4976 25.7261 20.6333 25.5908C20.7691 25.4555 20.9373 25.3879 21.138 25.3879H24.2327C24.5815 24.7721 25.0124 24.2236 25.5254 23.7424C26.0387 23.261 26.6213 22.8705 27.2733 22.5709L25.2 20.4894C25.0675 20.3659 25.0013 20.2116 25.0013 20.0265C25.0013 19.8412 25.0719 19.6779 25.2131 19.5367C25.3425 19.4073 25.4989 19.3426 25.6823 19.3426C25.8658 19.3426 26.0237 19.4089 26.1562 19.5413L28.6736 22.0587C29.2257 21.9008 29.7805 21.8218 30.3382 21.8218C30.8957 21.8218 31.4505 21.9008 32.0028 22.0587L34.591 19.5332C34.7145 19.4007 34.8688 19.3345 35.0539 19.3345C35.2393 19.3345 35.4026 19.4051 35.5437 19.5463C35.6731 19.6757 35.7378 19.8321 35.7378 20.0155C35.7378 20.199 35.6716 20.357 35.5391 20.4894L33.4577 22.5709C34.1096 22.8705 34.6857 23.2596 35.186 23.7382C35.6866 24.2168 36.1112 24.7667 36.46 25.3879H39.5547C39.7554 25.3879 39.9236 25.4559 40.0594 25.5919C40.1951 25.7279 40.263 25.8964 40.263 26.0973C40.263 26.2982 40.1951 26.4663 40.0594 26.6016C39.9236 26.7369 39.7554 26.8046 39.5547 26.8046H37.0702C37.3226 27.4765 37.4456 28.1727 37.4393 28.8931C37.4329 29.6137 37.4297 30.3342 37.4297 31.0546H39.5547C39.7554 31.0546 39.9236 31.1226 40.0594 31.2586C40.1951 31.3946 40.263 31.563 40.263 31.764C40.263 31.9649 40.1951 32.133 40.0594 32.2683C39.9236 32.4036 39.7554 32.4712 39.5547 32.4712H37.4297C37.4297 33.1796 37.4238 33.8924 37.412 34.6097C37.4002 35.3272 37.2862 36.0311 37.0702 36.7212H39.5547C39.7554 36.7212 39.9236 36.7892 40.0594 36.9252C40.1951 37.0612 40.263 37.2297 40.263 37.4306C40.263 37.6316 40.1951 37.7997 40.0594 37.935C39.9236 38.0703 39.7554 38.1379 39.5547 38.1379H36.46C35.8133 39.2422 34.9528 40.1085 33.8785 40.7368C32.8042 41.3653 31.6268 41.6796 30.3464 41.6796ZM30.3464 40.2629C31.9047 40.2629 33.2387 39.708 34.3484 38.5983C35.4582 37.4886 36.013 36.1546 36.013 34.5962V28.9296C36.013 27.3712 35.4582 26.0372 34.3484 24.9275C33.2387 23.8178 31.9047 23.2629 30.3464 23.2629C28.788 23.2629 27.454 23.8178 26.3443 24.9275C25.2345 26.0372 24.6797 27.3712 24.6797 28.9296V34.5962C24.6797 36.1546 25.2345 37.4886 26.3443 38.5983C27.454 39.708 28.788 40.2629 30.3464 40.2629ZM28.6573 35.3046H32.0354C32.2361 35.3046 32.4043 35.2366 32.5401 35.1006C32.6758 34.9646 32.7437 34.7961 32.7437 34.5952C32.7437 34.3942 32.6758 34.2261 32.5401 34.0908C32.4043 33.9555 32.2361 33.8879 32.0354 33.8879H28.6573C28.4566 33.8879 28.2884 33.9559 28.1526 34.0919C28.0169 34.2279 27.949 34.3964 27.949 34.5973C27.949 34.7982 28.0169 34.9663 28.1526 35.1016C28.2884 35.2369 28.4566 35.3046 28.6573 35.3046ZM28.6573 29.6379H32.0354C32.2361 29.6379 32.4043 29.5699 32.5401 29.4339C32.6758 29.2979 32.7437 29.1294 32.7437 28.9285C32.7437 28.7276 32.6758 28.5595 32.5401 28.4242C32.4043 28.2889 32.2361 28.2212 32.0354 28.2212H28.6573C28.4566 28.2212 28.2884 28.2892 28.1526 28.4252C28.0169 28.5612 27.949 28.7297 27.949 28.9306C27.949 29.1316 28.0169 29.2997 28.1526 29.435C28.2884 29.5703 28.4566 29.6379 28.6573 29.6379ZM16.887 21.8462C16.686 21.8462 16.5179 21.7784 16.3826 21.6426C16.2473 21.5068 16.1797 21.3386 16.1797 21.1379V18.4682C16.1797 17.8161 16.3981 17.2716 16.8349 16.8348C17.2717 16.398 17.8162 16.1796 18.4683 16.1796H21.138C21.3387 16.1796 21.5069 16.2476 21.6427 16.3836C21.7785 16.5196 21.8464 16.688 21.8464 16.889C21.8464 17.0899 21.7785 17.258 21.6427 17.3933C21.5069 17.5286 21.3387 17.5962 21.138 17.5962H18.4683C18.2501 17.5962 18.0503 17.687 17.8687 17.8686C17.6871 18.0502 17.5964 18.25 17.5964 18.4682V21.1379C17.5964 21.3386 17.5284 21.5068 17.3924 21.6426C17.2564 21.7784 17.0879 21.8462 16.887 21.8462ZM18.4683 44.5129C17.8162 44.5129 17.2717 44.2945 16.8349 43.8577C16.3981 43.4209 16.1797 42.8764 16.1797 42.2243V39.5546C16.1797 39.3539 16.2477 39.1856 16.3837 39.0499C16.5197 38.9141 16.6882 38.8462 16.8891 38.8462C17.09 38.8462 17.2581 38.9141 17.3934 39.0499C17.5287 39.1856 17.5964 39.3539 17.5964 39.5546V42.2243C17.5964 42.4424 17.6871 42.6423 17.8687 42.8239C18.0503 43.0054 18.2501 43.0962 18.4683 43.0962H21.138C21.3387 43.0962 21.5069 43.1642 21.6427 43.3002C21.7785 43.4362 21.8464 43.6047 21.8464 43.8056C21.8464 44.0066 21.7785 44.1747 21.6427 44.31C21.5069 44.4453 21.3387 44.5129 21.138 44.5129H18.4683ZM42.2244 44.5129H39.5547C39.354 44.5129 39.1858 44.4449 39.05 44.3089C38.9142 44.1729 38.8464 44.0044 38.8464 43.8035C38.8464 43.6026 38.9142 43.4345 39.05 43.2992C39.1858 43.1639 39.354 43.0962 39.5547 43.0962H42.2244C42.4426 43.0962 42.6424 43.0054 42.824 42.8239C43.0056 42.6423 43.0964 42.4424 43.0964 42.2243V39.5546C43.0964 39.3539 43.1644 39.1856 43.3004 39.0499C43.4364 38.9141 43.6048 38.8462 43.8058 38.8462C44.0067 38.8462 44.1748 38.9141 44.3101 39.0499C44.4454 39.1856 44.513 39.3539 44.513 39.5546V42.2243C44.513 42.8764 44.2946 43.4209 43.8578 43.8577C43.421 44.2945 42.8765 44.5129 42.2244 44.5129ZM43.8036 21.8462C43.6027 21.8462 43.4346 21.7784 43.2993 21.6426C43.164 21.5068 43.0964 21.3386 43.0964 21.1379V18.4682C43.0964 18.25 43.0056 18.0502 42.824 17.8686C42.6424 17.687 42.4426 17.5962 42.2244 17.5962H39.5547C39.354 17.5962 39.1858 17.5282 39.05 17.3922C38.9142 17.2562 38.8464 17.0878 38.8464 16.8868C38.8464 16.6859 38.9142 16.5178 39.05 16.3825C39.1858 16.2472 39.354 16.1796 39.5547 16.1796H42.2244C42.8765 16.1796 43.421 16.398 43.8578 16.8348C44.2946 17.2716 44.513 17.8161 44.513 18.4682V21.1379C44.513 21.3386 44.445 21.5068 44.309 21.6426C44.173 21.7784 44.0046 21.8462 43.8036 21.8462Z" fill="#E61D25"/>
</g>
</svg>
