<svg width="42" height="42" viewBox="0 0 42 42" fill="none" xmlns="http://www.w3.org/2000/svg">
<path fill-rule="evenodd" clip-rule="evenodd" d="M3.05097 38.6157C6.10194 41.6667 11.0124 41.6667 20.8333 41.6667C30.6543 41.6667 35.5647 41.6667 38.6157 38.6157C41.6667 35.5647 41.6667 30.6543 41.6667 20.8333C41.6667 11.0124 41.6667 6.10194 38.6157 3.05097C35.5647 -4.96705e-07 30.6543 -4.28972e-07 20.8333 3.14534e-10C11.0124 4.29601e-07 6.10194 4.96705e-07 3.05097 3.05097C-4.96705e-07 6.10194 -4.28965e-07 11.0124 3.21165e-10 20.8333C4.29608e-07 30.6543 4.96705e-07 35.5647 3.05097 38.6157ZM10.9375 20.8333C10.9375 19.9704 11.6371 19.2708 12.5 19.2708H25.3945L21.8118 15.6882C21.2016 15.078 21.2016 14.0887 21.8118 13.4785C22.422 12.8683 23.4113 12.8683 24.0215 13.4785L30.2715 19.7285C30.5645 20.0215 30.7292 20.4189 30.7292 20.8333C30.7292 21.2477 30.5645 21.6452 30.2715 21.9382L24.0215 28.1882C23.4113 28.7984 22.422 28.7984 21.8118 28.1882C21.2016 27.578 21.2016 26.5887 21.8118 25.9785L25.3945 22.3958H12.5C11.6371 22.3958 10.9375 21.6963 10.9375 20.8333Z" fill="#0F0F0F"/>
</svg>
