<svg width="42" height="42" viewBox="0 0 42 42" fill="none" xmlns="http://www.w3.org/2000/svg">
<path fill-rule="evenodd" clip-rule="evenodd" d="M38.6157 3.05097C35.5647 4.96705e-07 30.6543 4.29605e-07 20.8333 3.18323e-10C11.0124 -4.28968e-07 6.10194 -4.96705e-07 3.05097 3.05097C4.96705e-07 6.10194 4.29608e-07 11.0124 3.21165e-10 20.8333C-4.28965e-07 30.6543 -4.96705e-07 35.5647 3.05097 38.6157C6.10194 41.6667 11.0124 41.6667 20.8333 41.6667C30.6543 41.6667 35.5647 41.6667 38.6157 38.6157C41.6667 35.5647 41.6667 30.6543 41.6667 20.8333C41.6667 11.0124 41.6667 6.10194 38.6157 3.05097ZM30.7292 20.8333C30.7292 21.6963 30.0296 22.3958 29.1667 22.3958H16.2722L19.8549 25.9785C20.4651 26.5887 20.4651 27.578 19.8549 28.1882C19.2447 28.7984 18.2553 28.7984 17.6451 28.1882L11.3951 21.9382C11.1021 21.6452 10.9375 21.2477 10.9375 20.8333C10.9375 20.4189 11.1021 20.0215 11.3951 19.7285L17.6451 13.4785C18.2553 12.8683 19.2447 12.8683 19.8549 13.4785C20.4651 14.0887 20.4651 15.078 19.8549 15.6882L16.2722 19.2708H29.1667C30.0296 19.2708 30.7292 19.9704 30.7292 20.8333Z" fill="#0F0F0F"/>
</svg>
