<svg width="61" height="61" viewBox="0 0 61 61" fill="none" xmlns="http://www.w3.org/2000/svg">
<path d="M12.6445 1.26465H48.0479C54.3327 1.26465 59.4277 6.35964 59.4277 12.6445V48.0479C59.4277 54.3328 54.3327 59.4277 48.0479 59.4277H12.6445C6.35963 59.4277 1.26465 54.3327 1.26465 48.0479V12.6445C1.26465 6.35963 6.35964 1.26465 12.6445 1.26465Z" stroke="#E61D25" stroke-width="2.52885"/>
<mask id="mask0_9950_826" style="mask-type:alpha" maskUnits="userSpaceOnUse" x="13" y="13" width="35" height="35">
<rect x="13.3457" y="13.3462" width="34" height="34" fill="#D9D9D9"/>
</mask>
<g mask="url(#mask0_9950_826)">
<path d="M26.2483 30.003L29.4847 26.7581L26.5752 23.8405L25.4362 24.9791C25.3038 25.1118 25.1426 25.1841 24.9528 25.1959C24.763 25.2077 24.59 25.1354 24.434 24.9791C24.2776 24.823 24.1995 24.6546 24.1995 24.4737C24.1995 24.2931 24.2776 24.1246 24.434 23.9683L25.5645 22.8378L22.7991 20.0725L19.5546 23.3174L26.2483 30.003ZM37.3472 41.11L40.5921 37.8655L37.8268 35.1001L36.6881 36.2306C36.55 36.3688 36.3874 36.4423 36.2004 36.4513C36.0132 36.4605 35.8415 36.3869 35.6855 36.2306C35.5292 36.0746 35.451 35.9075 35.451 35.7295C35.451 35.5515 35.5292 35.3844 35.6855 35.2283L36.816 34.0893L33.9256 31.2071L30.6889 34.4435L37.3472 41.11ZM20.1567 41.6795C19.8278 41.6795 19.5548 41.571 19.3378 41.354C19.1209 41.137 19.0124 40.8641 19.0124 40.5352V37.6774C19.0124 37.5249 19.0387 37.3827 19.0913 37.251C19.144 37.1192 19.2321 36.9916 19.3556 36.8681L25.2376 30.9865L18.5112 24.2325C18.255 23.9766 18.127 23.6715 18.127 23.3174C18.127 22.9632 18.255 22.658 18.5112 22.4018L21.884 19.0291C22.1399 18.7732 22.445 18.6465 22.7991 18.6491C23.1533 18.6519 23.4585 18.7813 23.7146 19.0373L30.5037 25.7909L36.8323 19.4541C36.9886 19.298 37.153 19.1854 37.3256 19.1162C37.498 19.0473 37.6823 19.0128 37.8785 19.0128C38.0747 19.0128 38.2591 19.0473 38.4317 19.1162C38.6043 19.1854 38.7686 19.298 38.9247 19.4541L41.2377 21.8571C41.3938 22.0132 41.5018 22.1775 41.5618 22.3501C41.6218 22.5227 41.6518 22.7071 41.6518 22.9033C41.6518 23.0993 41.6218 23.2777 41.5618 23.4385C41.5018 23.5993 41.3938 23.7577 41.2377 23.9138L34.9633 30.2236L41.6627 36.9772C41.9187 37.2334 42.0467 37.5386 42.0467 37.8927C42.0467 38.2469 41.9187 38.552 41.6627 38.8079L38.29 42.1806C38.0338 42.4368 37.7287 42.5649 37.3745 42.5649C37.0203 42.5649 36.7153 42.4368 36.4593 42.1806L29.7054 35.4543L23.8237 41.3363C23.7002 41.4598 23.5726 41.5479 23.4409 41.6005C23.3091 41.6532 23.167 41.6795 23.0145 41.6795H20.1567ZM20.429 40.2628H22.8756L36.7862 26.3604L34.3315 23.9056L20.429 37.8162V40.2628ZM35.5764 25.1236L34.3315 23.9056L36.7862 26.3604L35.5764 25.1236Z" fill="#E61D25"/>
</g>
</svg>
